<?xml version="1.0"?>
<svg xmlns="http://www.w3.org/2000/svg" height="512px" version="1.1" viewBox="0 -12 512.00033 512" width="512px" class="hovered-paths"><g><g id="surface1">
<path d="M 498.5 242.441406 C 498.5 365.707031 401.28125 467.292969 279.242188 472.609375 L 269.152344 473.699219 L 13.621094 473.699219 L 94.753906 392.023438 C 78.390625 373.070312 65.164062 350.570312 55.617188 326.570312 C 45.527344 300.664062 39.800781 272.710938 39.800781 243.121094 C 39.800781 116.3125 142.613281 13.5 269.421875 13.5 C 396.234375 13.636719 498.5 115.765625 498.5 242.441406 Z M 498.5 242.441406 " style="fill:#572773" data-original="#00ACEA" class="" data-old_color="#00ACEA"/>
<path d="M 302.558594 229.761719 L 269.695312 229.761719 L 269.695312 196.625 C 269.695312 189.125 263.5625 182.988281 256.0625 182.988281 C 248.5625 182.988281 242.425781 189.125 242.425781 196.625 L 242.425781 229.761719 L 209.5625 229.761719 C 202.0625 229.761719 195.929688 235.894531 195.929688 243.394531 C 195.929688 250.894531 202.0625 257.03125 209.5625 257.03125 L 242.425781 257.03125 L 242.425781 290.164062 C 242.425781 297.664062 248.5625 303.800781 256.0625 303.800781 C 263.5625 303.800781 269.695312 297.664062 269.695312 290.164062 L 269.695312 257.03125 L 302.558594 257.03125 C 310.058594 257.03125 316.195312 250.894531 316.195312 243.394531 C 316.195312 235.894531 310.058594 229.761719 302.558594 229.761719 Z M 302.558594 229.761719 " style="fill:#FFFFFF" data-original="#083863" class="hovered-path active-path" data-old_color="#083863"/>
<path d="M 269.558594 0 C 135.386719 0 26.300781 109.222656 26.300781 243.257812 C 26.300781 273.664062 31.894531 303.390625 43.074219 331.753906 C 51.664062 353.433594 63.117188 373.75 76.480469 391.203125 L 3.9375 464.292969 C 0.121094 468.246094 -1.105469 474.109375 1.074219 479.152344 C 3.257812 484.199219 8.167969 487.609375 13.621094 487.609375 L 269.152344 487.609375 C 269.695312 487.609375 270.105469 487.609375 270.652344 487.472656 L 280.195312 486.378906 C 342.648438 483.515625 400.871094 456.792969 444.367188 411.25 C 488 365.570312 512 305.574219 512 242.578125 C 512 177.671875 486.773438 116.722656 441.09375 70.90625 C 395.417969 25.089844 334.464844 0 269.558594 0 Z M 424.730469 392.433594 C 386.007812 432.929688 334.191406 456.65625 278.558594 459.109375 C 278.285156 459.109375 278.015625 459.109375 277.605469 459.246094 L 268.332031 460.335938 L 46.480469 460.335938 L 104.570312 401.976562 C 109.613281 396.929688 109.886719 388.886719 105.25 383.433594 C 90.253906 366.25 77.570312 344.980469 68.570312 321.9375 C 58.753906 296.710938 53.710938 270.394531 53.710938 243.394531 C 53.710938 124.21875 150.523438 27.40625 269.695312 27.40625 C 327.375 27.40625 381.507812 49.769531 422.003906 90.265625 C 462.640625 130.902344 485 184.898438 485 242.578125 C 484.867188 298.484375 463.457031 351.796875 424.730469 392.433594 Z M 424.730469 392.433594 " style="fill:#FFFFFF" data-original="#083863" class="hovered-path active-path" data-old_color="#083863"/>
</g></g> </svg>
