<?xml version="1.0"?>
<svg xmlns="http://www.w3.org/2000/svg" xmlns:xlink="http://www.w3.org/1999/xlink" version="1.1" id="Capa_1" x="0px" y="0px" viewBox="0 0 512 512" style="enable-background:new 0 0 512 512;" xml:space="preserve" width="512px" height="512px" class=""><g><path style="fill:#DD3030" d="M503.5,208.75v222.5c0,14-11.3,25.3-25.3,25.3H33.8c-14,0-25.3-11.3-25.3-25.3v-222.5  c0-14,11.3-25.3,25.3-25.3h444.4C492.2,183.55,503.5,194.85,503.5,208.75" data-original="#FDCC00" class="active-path" data-old_color="#FDCC00"/><path style="fill:#DD3030" d="M478.2,183.55h-25.6c14,0,25.3,11.3,25.3,25.3v222.5c0,14-11.3,25.3-25.3,25.3h25.6  c14,0,25.3-11.3,25.3-25.3v-222.6C503.5,194.85,492.2,183.55,478.2,183.55" data-original="#FFA800" class="" data-old_color="#FFA800"/><path style="fill:#FFFFFF;" d="M34.1,183.55h25.6c-14,0-25.3,11.3-25.3,25.3v222.5c0,14,11.3,25.3,25.3,25.3H34.1  c-14,0-25.3-11.3-25.3-25.3v-222.6C8.9,194.85,20.2,183.55,34.1,183.55" data-original="#FFFFFF" class=""/><g>
	<polygon style="fill:#E12525" points="59.7,456.55 452.3,456.55 452.3,183.55 59.7,183.55  " data-original="#FFE100" class="" data-old_color="#FFE100"/>
	<path style="fill:#E12525" d="M435.2,192.05c-1.7,0-3.5-0.5-5-1.6c-0.9-0.6-86.9-62.6-136.1-93.6c-4-2.5-5.2-7.8-2.7-11.8   s7.8-5.2,11.8-2.7c49.6,31.2,136.1,93.5,137,94.2c3.8,2.8,4.7,8.1,1.9,11.9C440.5,190.85,437.8,192.05,435.2,192.05" data-original="#FFE100" class="" data-old_color="#FFE100"/>
	<path style="fill:#E12525" d="M93.9,192.05c-2.7,0-5.3-1.2-6.9-3.5c-2.8-3.8-1.9-9.2,1.9-11.9c0.9-0.6,87.3-62.9,137-94.2   c4-2.5,9.3-1.3,11.8,2.7s1.3,9.3-2.7,11.8c-49.2,31-135.2,92.9-136.1,93.6C97.3,191.55,95.6,192.05,93.9,192.05" data-original="#FFE100" class="" data-old_color="#FFE100"/>
	<path style="fill:#E12525" d="M290.1,89.65c0,18.9-15.3,34.1-34.1,34.1c-18.9,0-34.1-15.3-34.1-34.1s15.3-34.1,34.1-34.1   C274.9,55.55,290.1,70.75,290.1,89.65" data-original="#FFE100" class="" data-old_color="#FFE100"/>
</g><path style="fill:#DD3030" d="M256,55.55c-4.5,0-8.8,0.9-12.8,2.5c12.5,5.1,21.3,17.3,21.3,31.6c0,14.3-8.8,26.5-21.3,31.6  c4,1.6,8.3,2.5,12.8,2.5c18.9,0,34.1-15.3,34.1-34.1S274.9,55.55,256,55.55" data-original="#FFA800" class="" data-old_color="#FFA800"/><path d="M478.2,174.95h-48.8c-13.6-9.7-85.6-61.2-131-90.2c-2.4-21.2-20.5-37.8-42.4-37.8s-40,16.6-42.4,37.8  c-45.5,29-117.5,80.5-131,90.2H33.8c-18.6,0-33.8,15.2-33.8,33.8v222.5c0,18.6,15.2,33.8,33.8,33.8h17.4l0,0h409.6l0,0h17.4  c18.6,0,33.8-15.2,33.8-33.8v-222.5C512,190.15,496.8,174.95,478.2,174.95z M494.9,208.75v81.7c-5-2.9-10.9-4.6-17.1-4.6  s-12,1.7-17.1,4.6v-98.4h17.4C487.4,192.05,494.9,199.55,494.9,208.75z M68.3,448.05v-256h375.5v256H68.3z M494.9,320.05  c0,9.4-7.7,17.1-17.1,17.1s-17.1-7.7-17.1-17.1s7.7-17.1,17.1-17.1S494.9,310.65,494.9,320.05z M256,64.05  c14.1,0,25.6,11.5,25.6,25.6c0,14.1-11.5,25.6-25.6,25.6s-25.6-11.5-25.6-25.6C230.4,75.55,241.9,64.05,256,64.05z M215.7,103.75  c5.8,16.6,21.7,28.6,40.3,28.6s34.5-12,40.3-28.6c33.4,21.6,77.7,52.8,103.8,71.3H112C138,156.45,182.3,125.35,215.7,103.75z   M33.8,448.05c-9.2,0-16.7-7.5-16.7-16.7v-222.6c0-9.2,7.5-16.7,16.7-16.7h17.4v256H33.8z M478.2,448.05h-17.4v-98.5  c5,2.9,10.9,4.6,17.1,4.6s12-1.7,17.1-4.6v81.7C494.9,440.55,487.4,448.05,478.2,448.05z" data-original="#000000" class="" data-old_color="#000000" style="fill:#000000"/><path d="M34.1,277.35c-4.7,0-8.5,3.8-8.5,8.5v42.7c0,4.7,3.8,8.5,8.5,8.5s8.5-3.8,8.5-8.5v-42.7  C42.7,281.25,38.8,277.35,34.1,277.35z" data-original="#000000" class="" data-old_color="#000000" style="fill:#000000"/><path d="M34.1,345.65c-4.7,0-8.5,3.8-8.5,8.5v8.5c0,4.7,3.8,8.5,8.5,8.5s8.5-3.8,8.5-8.5v-8.5C42.7,349.45,38.8,345.65,34.1,345.65z  " data-original="#000000" class="" data-old_color="#000000" style="fill:#000000"/><path d="M332.8,285.95c8.9,0,17.1,8.1,17.1,17.1c0,4.7,3.8,8.5,8.5,8.5s8.5-3.8,8.5-8.5c0-18.5-15.6-34.1-34.1-34.1  c-10,0-19.4,4.1-25.9,11.3c-4.4,4.9-6.4,11.1-5.8,17.6c0.7,6.7,4.3,12.9,9.9,17l33.5,24.4c1.7,1.2,2.8,3,3,4.9  c0.1,1.2,0,2.8-1.5,4.4c-3.3,3.6-8.1,5.7-13.2,5.7c-8.9,0-17.1-8.1-17.1-17.1c0-4.7-3.8-8.5-8.5-8.5s-8.5,3.8-8.5,8.5  c0,18.5,15.6,34.1,34.1,34.1c10,0,19.4-4.1,25.9-11.3c4.4-4.9,6.4-11.1,5.8-17.6c-0.7-6.7-4.3-12.9-9.9-17l-33.5-24.4  c-1.7-1.2-2.8-3-3-4.9c-0.1-1.2,0-2.8,1.5-4.4C322.8,287.95,327.7,285.95,332.8,285.95z" data-original="#000000" class="" data-old_color="#000000" style="fill:#000000"/><path d="M251.4,268.85h-7.9c-16.6,0-30.2,13.5-30.2,30.2v42c0,16.6,13.5,30.2,30.2,30.2h7.9c16.6,0,30.2-13.5,30.2-30.2v-42  C281.6,282.35,268.1,268.85,251.4,268.85z M264.5,341.05c0,7.2-5.9,13.1-13.1,13.1h-7.9c-7.2,0-13.1-5.9-13.1-13.1v-42  c0-7.2,5.9-13.1,13.1-13.1h7.9c7.2,0,13.1,5.9,13.1,13.1V341.05z" data-original="#000000" class="" data-old_color="#000000" style="fill:#000000"/><path d="M124,285.95h12.5c4.7,0,8.5-3.8,8.5-8.5s-3.8-8.5-8.5-8.5H124c-16.6,0-30.2,13.5-30.2,30.2v41.9c0,16.6,13.5,30.2,30.2,30.2  h12.5c4.7,0,8.5-3.8,8.5-8.5s-3.8-8.5-8.5-8.5H124c-7.2,0-13.1-5.9-13.1-13.1v-42.1C110.9,291.75,116.8,285.95,124,285.95z" data-original="#000000" class="" data-old_color="#000000" style="fill:#000000"/><path d="M418.1,285.95c4.7,0,8.5-3.8,8.5-8.5s-3.8-8.5-8.5-8.5h-25.6c-4.7,0-8.5,3.8-8.5,8.5v85.3c0,4.7,3.8,8.5,8.5,8.5h25.6  c4.7,0,8.5-3.8,8.5-8.5s-3.8-8.5-8.5-8.5H401v-25.6h17.1c4.7,0,8.5-3.8,8.5-8.5s-3.8-8.5-8.5-8.5H401v-25.6h17.1V285.95z" data-original="#000000" class="" data-old_color="#000000" style="fill:#000000"/><path d="M196.3,354.15h-17.1v-76.8c0-4.7-3.8-8.5-8.5-8.5s-8.5,3.8-8.5,8.5v85.3c0,4.7,3.8,8.5,8.5,8.5h25.6c4.7,0,8.5-3.8,8.5-8.5  S201,354.15,196.3,354.15z" data-original="#000000" class="" data-old_color="#000000" style="fill:#000000"/></g> </svg>
