<?xml version="1.0"?>
<svg xmlns="http://www.w3.org/2000/svg" xmlns:xlink="http://www.w3.org/1999/xlink" version="1.1" id="Capa_1" x="0px" y="0px" viewBox="0 0 512 512" style="enable-background:new 0 0 512 512;" xml:space="preserve" width="512px" height="512px" class=""><g><path style="fill:#31BE30" d="M503.5,208.75v222.5c0,14-11.3,25.3-25.3,25.3H33.8c-14,0-25.3-11.3-25.3-25.3v-222.5  c0-14,11.3-25.3,25.3-25.3h444.4C492.2,183.55,503.5,194.85,503.5,208.75" data-original="#FDCC00" class="" data-old_color="#FDCC00"/><path style="fill:#31BE30" d="M478.2,183.55h-25.6c14,0,25.3,11.3,25.3,25.3v222.5c0,14-11.3,25.3-25.3,25.3h25.6  c14,0,25.3-11.3,25.3-25.3v-222.6C503.5,194.85,492.2,183.55,478.2,183.55" data-original="#FFA800" class="active-path" data-old_color="#FFA800"/><path style="fill:#FFFFFF;" d="M34.1,183.55h25.6c-14,0-25.3,11.3-25.3,25.3v222.5c0,14,11.3,25.3,25.3,25.3H34.1  c-14,0-25.3-11.3-25.3-25.3v-222.6C8.9,194.85,20.2,183.55,34.1,183.55" data-original="#FFFFFF" class=""/><g>
	<polygon style="fill:#0CBC0A" points="59.7,456.55 452.3,456.55 452.3,183.55 59.7,183.55  " data-original="#FFE100" class="" data-old_color="#FFE100"/>
	<path style="fill:#0CBC0A" d="M435.2,192.05c-1.7,0-3.5-0.5-5-1.6c-0.9-0.6-86.9-62.6-136.1-93.6c-4-2.5-5.2-7.8-2.7-11.8   s7.8-5.2,11.8-2.7c49.6,31.2,136.1,93.5,137,94.2c3.8,2.8,4.7,8.1,1.9,11.9C440.5,190.85,437.8,192.05,435.2,192.05" data-original="#FFE100" class="" data-old_color="#FFE100"/>
	<path style="fill:#0CBC0A" d="M93.9,192.05c-2.7,0-5.3-1.2-6.9-3.5c-2.8-3.8-1.9-9.2,1.9-11.9c0.9-0.6,87.3-62.9,137-94.2   c4-2.5,9.3-1.3,11.8,2.7s1.3,9.3-2.7,11.8c-49.2,31-135.2,92.9-136.1,93.6C97.3,191.55,95.6,192.05,93.9,192.05" data-original="#FFE100" class="" data-old_color="#FFE100"/>
	<path style="fill:#0CBC0A" d="M290.1,89.65c0,18.9-15.3,34.1-34.1,34.1c-18.9,0-34.1-15.3-34.1-34.1s15.3-34.1,34.1-34.1   C274.9,55.55,290.1,70.75,290.1,89.65" data-original="#FFE100" class="" data-old_color="#FFE100"/>
</g><path style="fill:#31BE30" d="M256,55.55c-4.5,0-8.8,0.9-12.8,2.5c12.5,5.1,21.3,17.3,21.3,31.6c0,14.3-8.8,26.5-21.3,31.6  c4,1.6,8.3,2.5,12.8,2.5c18.9,0,34.1-15.3,34.1-34.1S274.9,55.55,256,55.55" data-original="#FFA800" class="active-path" data-old_color="#FFA800"/><path d="M149,277.35h-16.5c-16.6,0-30.2,13.5-30.2,30.2v42.1c0,16.6,13.5,30.2,30.2,30.2H149c16.6,0,30.2-13.5,30.2-30.2v-42.1  C179.2,290.95,165.7,277.35,149,277.35z M162.1,349.65c0,7.2-5.9,13.1-13.1,13.1h-16.5c-7.2,0-13.1-5.9-13.1-13.1v-42.1  c0-7.2,5.9-13.1,13.1-13.1H149c7.2,0,13.1,5.9,13.1,13.1V349.65z" data-original="#000000" class="" style="fill:#000000"/><path d="M392.5,277.35c-4.7,0-8.5,3.8-8.5,8.5v54.5l-35.4-58.9c0-0.1-0.1-0.1-0.1-0.2c-0.1-0.1-0.2-0.3-0.3-0.4  c-0.1-0.1-0.2-0.2-0.2-0.3c-0.1-0.1-0.2-0.2-0.3-0.3c-0.1-0.1-0.2-0.2-0.3-0.3c-0.1-0.1-0.2-0.2-0.2-0.2c-0.1-0.1-0.2-0.2-0.4-0.3  c-0.1-0.1-0.2-0.1-0.2-0.2c-0.1-0.1-0.3-0.2-0.4-0.3c-0.1-0.1-0.2-0.1-0.3-0.2c-0.1-0.1-0.3-0.2-0.4-0.2c-0.1-0.1-0.2-0.1-0.3-0.2  c-0.1-0.1-0.2-0.1-0.4-0.2c-0.1-0.1-0.3-0.1-0.4-0.2c-0.1,0-0.2-0.1-0.4-0.1c-0.1,0-0.3-0.1-0.4-0.1s-0.2-0.1-0.4-0.1  c-0.1,0-0.3-0.1-0.4-0.1s-0.3,0-0.4-0.1c-0.1,0-0.3,0-0.4,0c-0.2,0-0.3,0-0.5,0c-0.1,0-0.1,0-0.2,0s-0.1,0-0.2,0c-0.2,0-0.3,0-0.5,0  c-0.1,0-0.2,0-0.3,0c-0.2,0-0.3,0-0.5,0.1c-0.1,0-0.3,0-0.4,0.1c-0.1,0-0.3,0.1-0.4,0.1s-0.3,0.1-0.4,0.1s-0.2,0.1-0.3,0.1  c-0.2,0.1-0.3,0.1-0.5,0.2c-0.1,0-0.2,0.1-0.3,0.1c-0.2,0.1-0.3,0.2-0.5,0.3c0,0-0.1,0-0.1,0.1c-0.1,0-0.1,0.1-0.2,0.1  c-0.1,0.1-0.3,0.2-0.4,0.3c-0.1,0.1-0.2,0.2-0.3,0.2c-0.1,0.1-0.2,0.2-0.3,0.3c-0.1,0.1-0.2,0.2-0.3,0.3c-0.1,0.1-0.2,0.2-0.2,0.2  c-0.1,0.1-0.2,0.2-0.3,0.4c-0.1,0.1-0.1,0.2-0.2,0.2c-0.1,0.1-0.2,0.3-0.3,0.4c-0.1,0.1-0.1,0.2-0.2,0.3c-0.1,0.1-0.2,0.3-0.2,0.4  c-0.1,0.1-0.1,0.2-0.2,0.3c-0.1,0.1-0.1,0.2-0.2,0.4c-0.1,0.1-0.1,0.3-0.2,0.4c0,0.1-0.1,0.2-0.1,0.4c0,0.1-0.1,0.3-0.1,0.4  s-0.1,0.2-0.1,0.4c0,0.1-0.1,0.3-0.1,0.4s0,0.3-0.1,0.4c0,0.1,0,0.3,0,0.4c0,0.2,0,0.3,0,0.5c0,0.1,0,0.1,0,0.2v85.3  c0,4.7,3.8,8.5,8.5,8.5s8.5-3.8,8.5-8.5v-54.5l35.4,58.9l0.1,0.1c0.1,0.2,0.3,0.5,0.5,0.7c0,0.1,0.1,0.1,0.1,0.2  c0.2,0.2,0.4,0.5,0.6,0.7c0.1,0.1,0.2,0.2,0.3,0.3c0.2,0.1,0.3,0.3,0.5,0.4c0.1,0.1,0.2,0.2,0.3,0.2c0.2,0.1,0.4,0.3,0.6,0.4  c0.1,0,0.1,0.1,0.2,0.1c0.3,0.2,0.6,0.3,0.9,0.4c0.1,0,0.1,0,0.2,0.1c0.3,0.1,0.5,0.2,0.8,0.3c0.1,0,0.2,0,0.2,0.1  c0.3,0.1,0.5,0.1,0.8,0.1c0.1,0,0.2,0,0.2,0c0.3,0,0.7,0.1,1,0.1l0,0l0,0l0,0c0.3,0,0.7,0,1-0.1c0.1,0,0.2,0,0.3,0  c0.3,0,0.5-0.1,0.8-0.2c0.1,0,0.2,0,0.3-0.1c0.7-0.2,1.3-0.5,1.9-0.8c0,0,0.1,0,0.1-0.1c0.1,0,0.1-0.1,0.2-0.1  c0.1-0.1,0.3-0.2,0.4-0.3c0.1-0.1,0.2-0.2,0.3-0.2c0.1-0.1,0.2-0.2,0.3-0.3c0.1-0.1,0.2-0.2,0.3-0.3c0.1-0.1,0.2-0.2,0.2-0.2  c0.1-0.1,0.2-0.2,0.3-0.4c0.1-0.1,0.1-0.2,0.2-0.2c0.1-0.1,0.2-0.3,0.3-0.4c0.1-0.1,0.1-0.2,0.2-0.3c0.1-0.1,0.2-0.3,0.2-0.4  c0.1-0.1,0.1-0.2,0.2-0.3c0.1-0.1,0.1-0.2,0.2-0.4c0.1-0.1,0.1-0.3,0.2-0.4c0-0.1,0.1-0.2,0.1-0.4c0-0.1,0.1-0.3,0.1-0.4  s0.1-0.2,0.1-0.4c0-0.1,0.1-0.3,0.1-0.4s0-0.3,0.1-0.4c0-0.1,0-0.3,0-0.4c0-0.2,0-0.3,0-0.5c0-0.1,0-0.1,0-0.2v-85.3  C401.1,281.25,397.2,277.35,392.5,277.35z" data-original="#000000" class="" style="fill:#000000"/><path d="M221.9,277.35h-17.1c-4.7,0-8.5,3.8-8.5,8.5v51.2v34.1c0,4.7,3.8,8.5,8.5,8.5s8.5-3.8,8.5-8.5v-25.6h8.5  c18.8,0,34.1-15.3,34.1-34.1C256,292.65,240.7,277.35,221.9,277.35z M221.9,328.55h-8.5v-34.1h8.5c9.4,0,17.1,7.7,17.1,17.1  C238.9,320.95,231.3,328.55,221.9,328.55z" data-original="#000000" class="" style="fill:#000000"/><path d="M307.2,294.45c4.7,0,8.5-3.8,8.5-8.5s-3.8-8.5-8.5-8.5h-25.6c-4.7,0-8.5,3.8-8.5,8.5v85.3c0,4.7,3.8,8.5,8.5,8.5h25.6  c4.7,0,8.5-3.8,8.5-8.5s-3.8-8.5-8.5-8.5h-17.1v-25.6h17.1c4.7,0,8.5-3.8,8.5-8.5s-3.8-8.5-8.5-8.5h-17.1v-25.6h17.1V294.45z" data-original="#000000" class="" style="fill:#000000"/><path d="M478.2,174.95h-48.8c-13.6-9.7-85.6-61.2-131-90.2c-2.4-21.2-20.5-37.8-42.4-37.8s-40,16.6-42.4,37.8  c-45.5,29-117.5,80.5-131,90.2H33.8c-18.6,0-33.8,15.2-33.8,33.8v222.5c0,18.6,15.2,33.8,33.8,33.8h17.4l0,0h409.6l0,0h17.4  c18.6,0,33.8-15.2,33.8-33.8v-222.5C512,190.15,496.8,174.95,478.2,174.95z M494.9,208.75v81.7c-5-2.9-10.9-4.6-17.1-4.6  s-12,1.7-17.1,4.6v-98.4h17.4C487.4,192.05,494.9,199.55,494.9,208.75z M68.3,448.05v-256h375.5v256H68.3z M494.9,320.05  c0,9.4-7.7,17.1-17.1,17.1s-17.1-7.7-17.1-17.1s7.7-17.1,17.1-17.1S494.9,310.65,494.9,320.05z M256,64.05  c14.1,0,25.6,11.5,25.6,25.6c0,14.1-11.5,25.6-25.6,25.6s-25.6-11.5-25.6-25.6C230.4,75.55,241.9,64.05,256,64.05z M215.7,103.75  c5.8,16.6,21.7,28.6,40.3,28.6s34.5-12,40.3-28.6c33.4,21.6,77.7,52.8,103.8,71.3H112C138,156.45,182.3,125.35,215.7,103.75z   M33.8,448.05c-9.2,0-16.7-7.5-16.7-16.7v-222.6c0-9.2,7.5-16.7,16.7-16.7h17.4v256H33.8z M478.2,448.05h-17.4v-98.5  c5,2.9,10.9,4.6,17.1,4.6s12-1.7,17.1-4.6v81.7C494.9,440.55,487.4,448.05,478.2,448.05z" data-original="#000000" class="" style="fill:#000000"/><path d="M34.1,277.35c-4.7,0-8.5,3.8-8.5,8.5v42.7c0,4.7,3.8,8.5,8.5,8.5s8.5-3.8,8.5-8.5v-42.7  C42.7,281.25,38.8,277.35,34.1,277.35z" data-original="#000000" class="" style="fill:#000000"/><path d="M34.1,345.65c-4.7,0-8.5,3.8-8.5,8.5v8.5c0,4.7,3.8,8.5,8.5,8.5s8.5-3.8,8.5-8.5v-8.5C42.7,349.45,38.8,345.65,34.1,345.65z  " data-original="#000000" class="" style="fill:#000000"/></g> </svg>
