<?xml version="1.0"?>
<svg xmlns="http://www.w3.org/2000/svg" xmlns:xlink="http://www.w3.org/1999/xlink" version="1.1" id="Capa_1" x="0px" y="0px" viewBox="0 0 512 512" style="enable-background:new 0 0 512 512;" xml:space="preserve" width="512px" height="512px" class=""><g><path style="fill:#989690" d="M504.505,309.245V202.766h-76.873c-3.287-10.609-7.54-20.79-12.639-30.457l54.373-54.373  l-75.291-75.292l-54.374,54.374c-9.667-5.099-19.848-9.353-30.457-12.64V7.505H202.766v76.873  c-10.609,3.287-21.006,7.324-30.673,12.424l-54.158-54.158l-75.291,75.292l54.373,54.373c-5.099,9.667-9.353,19.848-12.64,30.457  H7.506v106.479h76.873c3.287,10.609,7.54,20.79,12.64,30.457l-54.373,54.373l75.291,75.291l54.374-54.374  c9.667,5.099,19.848,9.396,30.457,12.682v76.83h106.478v-76.872c10.609-3.287,20.79-7.539,30.457-12.64l54.374,54.374l75.291-75.291  l-54.373-54.373c5.099-9.667,9.353-19.848,12.639-30.457L504.505,309.245L504.505,309.245z" data-original="#FFE477" class="" data-old_color="#FFE477"/><g>
	<rect x="459.067" y="237.904" style="fill:#C5C4BF" width="36.202" height="36.202" data-original="#FFD422" class="" data-old_color="#FFD422"/>
	<rect x="55.043" y="237.904" style="fill:#C5C4BF" width="36.202" height="36.202" data-original="#FFD422" class="" data-old_color="#FFD422"/>
	<circle style="fill:#C5C4BF" cx="276.006" cy="256.005" r="115.007" data-original="#FFD422" class="" data-old_color="#FFD422"/>
	<path style="fill:#C5C4BF" d="M84.378,202.766h40.002c3.287-10.609,7.54-20.79,12.64-30.457l-54.373-54.373l55.29-55.29   l-20.001-20.001l-75.291,75.292l54.373,54.373C91.918,181.976,87.665,192.157,84.378,202.766z" data-original="#FFD422" class="" data-old_color="#FFD422"/>
	<path style="fill:#C5C4BF" d="M212.096,96.802c9.667-5.099,20.064-9.137,30.673-12.424V7.505h-40.002v76.873   c-0.783,0.243-1.563,0.498-2.344,0.749L212.096,96.802z" data-original="#FFD422" class="" data-old_color="#FFD422"/>
	<path style="fill:#C5C4BF" d="M379.703,97.018l34.373-34.373l-20.001-20.001l-42.489,42.489   C361.352,88.309,370.752,92.294,379.703,97.018z" data-original="#FFD422" class="" data-old_color="#FFD422"/>
	<path style="fill:#C5C4BF" d="M82.647,394.075l54.373-54.373c-5.099-9.667-9.353-19.848-12.64-30.457H84.378   c3.287,10.609,7.54,20.79,12.64,30.457l-54.373,54.373l75.291,75.291l20.001-20.001L82.647,394.075z" data-original="#FFD422" class="" data-old_color="#FFD422"/>
	<path style="fill:#C5C4BF" d="M379.703,414.993c-8.953,4.723-18.352,8.708-28.118,11.885l42.489,42.49l20.001-20.001   L379.703,414.993z" data-original="#FFD422" class="" data-old_color="#FFD422"/>
	<rect x="7.506" y="202.762" style="fill:#C5C4BF" width="40.002" height="106.476" data-original="#FFD422" class="" data-old_color="#FFD422"/>
	<path style="fill:#C5C4BF" d="M212.312,414.993l-11.916,11.916c0.789,0.257,1.576,0.52,2.37,0.766v76.829h40.002v-76.829   C232.16,424.388,221.978,420.093,212.312,414.993z" data-original="#FFD422" class="" data-old_color="#FFD422"/>
</g><g>
	<rect x="439.066" y="237.904" style="fill:#FF3F62;" width="36.202" height="36.202" data-original="#FF3F62"/>
	<rect x="35.042" y="237.904" style="fill:#FF3F62;" width="36.202" height="36.202" data-original="#FF3F62"/>
</g><circle style="fill:#57A4FF;" cx="256.005" cy="256.005" r="115.007" data-original="#57A4FF"/><g>
	<rect x="439.066" y="237.904" style="fill:#C70024;" width="20.001" height="36.202" data-original="#C70024" class=""/>
	<rect x="35.042" y="237.904" style="fill:#C70024;" width="20.001" height="36.202" data-original="#C70024" class=""/>
</g><path style="fill:#006DF0;" d="M160.999,256.005c0-60.147,46.174-109.5,105.006-114.569c-3.296-0.284-6.63-0.438-10.001-0.438  c-63.517,0-115.007,51.49-115.007,115.007s51.49,115.007,115.007,115.007c3.37,0,6.704-0.154,10.001-0.438  C207.173,365.505,160.999,316.152,160.999,256.005z" data-original="#006DF0" class=""/><g>
	<path style="fill:#1D1D1F;" d="M431.56,230.402v51.208h51.208v-51.208L431.56,230.402L431.56,230.402z M467.767,266.609h-21.206   v-21.206h21.206V266.609z" data-original="#1D1D1F" class=""/>
	<path style="fill:#1D1D1F;" d="M78.745,281.609v-51.208H27.537v51.208H78.745z M42.537,245.402h21.206v21.206H42.537V245.402z" data-original="#1D1D1F" class=""/>
	<path style="fill:#1D1D1F;" d="M133.498,256.005c0,67.551,54.956,122.507,122.507,122.507s122.507-54.956,122.507-122.507   s-54.956-122.507-122.507-122.507S133.498,188.454,133.498,256.005z M289.592,178.014c2.668,5.383,5.017,11.249,7.044,17.487   h-81.262c2.027-6.239,4.375-12.104,7.044-17.487c9.297-18.757,21.538-29.516,33.587-29.516S280.296,159.257,289.592,178.014z    M363.246,248.505h-42.854c-0.408-13.416-1.899-26.189-4.322-38.012l37.322,0.009C358.872,222.184,362.311,235.004,363.246,248.505   z M148.762,263.457l42.857,0.009c0.406,13.426,1.897,26.21,4.321,38.041h-37.32C153.132,289.812,149.692,276.975,148.762,263.457z    M191.62,248.505h-42.855c0.936-13.519,4.383-26.357,9.877-38.051l37.306,0.009C193.522,222.294,192.028,235.078,191.62,248.505z    M211.314,210.466l37.191,0.009v38.029H206.64C207.075,235.18,208.665,222.343,211.314,210.466z M206.638,263.469l41.866,0.009   v38.029h-37.199C208.659,289.631,207.071,276.794,206.638,263.469z M248.505,316.482v45.657   c-9.504-3.445-18.72-13.279-26.087-28.143c-2.673-5.393-5.026-11.271-7.055-17.523L248.505,316.482z M263.505,362.138v-45.653   l33.135,0.008c-2.028,6.244-4.378,12.115-7.048,17.502C282.226,348.859,273.01,358.693,263.505,362.138z M263.505,301.508v-38.025   l41.865,0.009c-0.434,13.317-2.021,26.147-4.667,38.016H263.505z M320.392,263.494l42.854,0.009   c-0.935,13.501-4.373,26.322-9.855,38.004H316.07C318.494,289.684,319.985,276.91,320.392,263.494z M305.371,248.505h-41.865   v-38.025l37.196,0.009C303.348,222.359,304.937,235.188,305.371,248.505z M219,155.063c-7.977,10.451-14.598,24.258-19.342,40.438   h-32.469C179.732,177.145,197.809,162.857,219,155.063z M167.156,316.462l32.491,0.008c4.745,16.197,11.37,30.018,19.354,40.477   C197.791,349.147,179.701,334.841,167.156,316.462z M293.011,356.947c7.979-10.454,14.601-24.264,19.346-40.449l32.468,0.008   C332.281,334.863,314.203,349.153,293.011,356.947z M344.823,195.501h-32.469c-4.744-16.18-11.365-29.988-19.342-40.438   C314.202,162.857,332.28,177.145,344.823,195.501z" data-original="#1D1D1F" class=""/>
	<path style="fill:#1D1D1F;" d="M257.453,397.399c-77.966,0-141.395-63.43-141.395-141.394h-15.001   c0,86.236,70.158,156.395,156.396,156.395V397.399z" data-original="#1D1D1F" class=""/>
</g><g>
	<path style="fill:#FFFFFF" d="M281.085,116.575c4.665,0.785,9.342,1.817,13.897,3.067l3.971-14.466   c-5.042-1.384-10.217-2.526-15.379-3.394L281.085,116.575z" data-original="#FFFFFF" class="active-path"/>
	<path style="fill:#FFFFFF" d="M257.453,114.611c4.747,0,9.534,0.238,14.225,0.706l1.49-14.927   c-5.184-0.518-10.472-0.78-15.715-0.78V114.611z" data-original="#FFFFFF" class="active-path"/>
	<path style="fill:#FFFFFF" d="M308.979,108.299l-4.939,14.164c56.707,19.781,94.808,73.447,94.808,133.542   c0,21.919-4.876,42.926-14.492,62.433l13.454,6.633c10.644-21.588,16.039-44.826,16.039-69.066   C413.847,189.537,371.705,130.179,308.979,108.299z" data-original="#FFFFFF" class="active-path"/>
</g><g>
	<rect x="272.486" y="38.687" style="fill:#1D1D1F;" width="15.001" height="15.001" data-original="#1D1D1F" class=""/>
	<rect x="224.483" y="38.687" style="fill:#1D1D1F;" width="15.001" height="15.001" data-original="#1D1D1F" class=""/>
	<rect x="247.485" y="38.687" style="fill:#1D1D1F;" width="15.001" height="15.001" data-original="#1D1D1F" class=""/>
	<rect x="247.485" y="459.957" style="fill:#1D1D1F;" width="15.001" height="15.001" data-original="#1D1D1F" class=""/>
	<rect x="224.483" y="459.957" style="fill:#1D1D1F;" width="15.001" height="15.001" data-original="#1D1D1F" class=""/>
	<rect x="272.486" y="459.957" style="fill:#1D1D1F;" width="15.001" height="15.001" data-original="#1D1D1F" class=""/>
	<path style="fill:#1D1D1F;" d="M80.475,90.715l37.462-37.462l52.733,52.733l0.03,0.03l4.89-2.58   c8.479-4.48,18.371-8.48,29.392-11.891l5.28-1.64V15.001h91.485v14.011l14.95,0.05v-0.05h0.04V0.05L195.261,0v78.915   c-7.79,2.62-15.091,5.56-21.701,8.751l-55.593-55.593l-0.03-0.04L69.865,80.115l10.57,10.571L80.475,90.715z" data-original="#1D1D1F" class=""/>
	<path style="fill:#1D1D1F;" d="M301.749,497.009h-91.485v-74.824l-5.28-1.67c-9.871-3.06-19.69-7.15-29.172-12.151l-4.859-2.57   l-0.04-0.02l-52.974,52.983l-31.852-31.852l-0.04-0.03l-10.601,10.601l0.02,0.08l0.04-0.02l42.392,42.402l0.04,0.04l55.823-55.833   c7.03,3.46,14.261,6.47,21.501,8.971v78.845L316.74,512v-36.732l-14.99-0.05v21.791H301.749z" data-original="#1D1D1F" class=""/>
	<path style="fill:#1D1D1F;" d="M53.253,394.073l52.953-52.953l0.02-0.03l-2.58-4.89c-4.93-9.351-9.001-19.161-12.101-29.172   l-1.64-5.28H15.001v-91.485h74.864l1.68-5.28c3.1-10.001,7.17-19.821,12.101-29.172l2.58-4.89l-52.973-52.983l16.681-16.681   l-10.57-10.571l-0.04-0.04l-27.292,27.292l55.833,55.823c-3.42,6.97-6.42,14.211-8.932,21.501H0.05L0,316.749h78.935   c2.511,7.29,5.511,14.521,8.932,21.501l-55.833,55.823l32.832,32.832l0.04,0.04l10.61-10.611L53.253,394.073z" data-original="#1D1D1F" class=""/>
	<path style="fill:#1D1D1F;" d="M511.96,316.749L512,195.261h-78.925c-2.51-7.29-5.51-14.521-8.931-21.501l55.823-55.823   l-85.855-85.865l-0.04-0.04l-55.822,55.833c-6.971-3.42-14.211-6.42-21.512-8.931V44.013l-14.99-0.05v45.903l5.27,1.68   c10.011,3.1,19.831,7.17,29.182,12.111l4.86,2.56l0.03,0.01l52.982-52.973l64.685,64.684l-52.953,52.953l-0.03,0.03l2.58,4.89   c4.94,9.351,9.011,19.171,12.111,29.172l1.64,5.28H497v91.485h-74.863l-1.67,5.28c-3.101,10.011-7.17,19.821-12.111,29.172   l-2.58,4.89l52.983,52.983l-64.685,64.684l-52.953-52.953l-0.029-0.03l-4.891,2.59c-9.351,4.93-19.171,9.001-29.172,12.101   l-5.279,1.64v38.162l14.95,0.05v-0.05h0.04v-27.192c7.311-2.51,14.541-5.51,21.512-8.931l55.793,55.793l0.029,0.04l85.896-85.905   l-55.823-55.823c3.42-6.98,6.43-14.211,8.931-21.501L511.96,316.749L511.96,316.749z" data-original="#1D1D1F" class=""/>
	
		<rect x="110.519" y="96.105" transform="matrix(-0.7071 0.7071 -0.7071 -0.7071 285.7455 120.0019)" style="fill:#1D1D1F;" width="15.001" height="46.152" data-original="#1D1D1F" class=""/>
	
		<rect x="370.058" y="386.809" transform="matrix(0.7071 0.7071 -0.7071 0.7071 393.9649 -162.4972)" style="fill:#1D1D1F;" width="46.152" height="15.001" data-original="#1D1D1F" class=""/>
</g><g>
	
		<rect x="421.014" y="109.527" transform="matrix(-0.7071 -0.7071 0.7071 -0.7071 653.671 504.8135)" style="fill:#FFFFFF" width="20.743" height="15.001" data-original="#FFFFFF" class="active-path"/>
	
		<rect x="404.181" y="89.823" transform="matrix(0.7071 0.7071 -0.7071 0.7071 189.3965 -262.5974)" style="fill:#FFFFFF" width="15.001" height="15.001" data-original="#FFFFFF" class="active-path"/>
	
		<rect x="386.5" y="72.145" transform="matrix(0.7071 0.7071 -0.7071 0.7071 171.7176 -255.2728)" style="fill:#FFFFFF" width="15.001" height="15.001" data-original="#FFFFFF" class="active-path"/>
</g><g>
	<rect x="248.505" y="176.17" style="fill:#1D1D1F;" width="15.001" height="15.001" data-original="#1D1D1F" class=""/>
	<rect x="248.505" y="151.169" style="fill:#1D1D1F;" width="15.001" height="15.001" data-original="#1D1D1F" class=""/>
	<rect x="269.256" y="268.256" style="fill:#1D1D1F;" width="25.001" height="15.001" data-original="#1D1D1F" class=""/>
</g></g> </svg>
